# xmcd CD database file
#
# Track frame offsets:
#	150
#	28270
#	49202
#	74165
#	91237
#	109012
#	125130
#	150047
#	171882
#	191725
#	219755
#	242215
#
# Disc length: 3544 seconds
#
# Revision: 0
# Processed by: cddbd v1.5PL3 Copyright (c) Steve Scherf et al.
# Submitted via: CDex 1.51
#
DISCID=a80dd60c
DTITLE=Dr. UMEZU BAND and KIYOSHIRO - DANGER
DYEAR=1994
DGENRE=Japanese Rock
TTITLE0=ポップアップ
TTITLE1=メロディー
TTITLE2=大いなる訣別(ナンデ、ナンデ、ナンデ)
TTITLE3=夕陽に赤いカバ
TTITLE4=チモール
TTITLE5=ダンスパーティー
TTITLE6=俺は悪くない
TTITLE7=貴女のお嬢さんに
TTITLE8=はたらく人々
TTITLE9=あの娘とショッピング
TTITLE10=おれは有名
TTITLE11=上品な猫みたいな
EXTD=YEAR: 1994
EXTT0=
EXTT1=
EXTT2=
EXTT3=
EXTT4=
EXTT5=
EXTT6=
EXTT7=
EXTT8=
EXTT9=
EXTT10=
EXTT11=
PLAYORDER=
